<svg xmlns="http://www.w3.org/2000/svg" width="24" height="24" viewBox="0 0 24 24" fill="none" stroke="#bbbbbb" stroke-width="1.5" stroke-linecap="round" stroke-linejoin="round" class="icon icon-tabler icons-tabler-outline icon-tabler-file-alert">
	<path stroke="none" d="M0 0h24v24H0z" fill="none" />
	<path d="M14 3v4a1 1 0 0 0 1 1h4" />
	<path d="M17 21h-10a2 2 0 0 1 -2 -2v-14a2 2 0 0 1 2 -2h7l5 5v11a2 2 0 0 1 -2 2" />
	<circle cx="12" cy="11" r="0.75" fill="#bbbbbb" stroke="none" />
    <circle cx="12" cy="14" r="0.75" fill="#bbbbbb" stroke="none" />
    <circle cx="12" cy="17" r="0.75" fill="#bbbbbb" stroke="none" />
	<path d="M12 11l0 3" />
</svg>